#!OML:ASF C:\ViconDB\ViconDB\414\Spring2016\042216\male.ASF
:FULLY-SPECIFIED
:DEGREES
887
root 13.9463 17.624 5.09917 -181.351 54.8256 -181.906
lowerback -2.96642 -2.48852 1.65449
upperback -0.593959 -3.35365 -0.558226
thorax 0.922929 -1.66849 -1.61824
lowerneck -1.71111 8.06953 -2.80796
upperneck 3.03678 10.8856 -0.391458
head 1.08501 5.41191 0.478417
rclavicle 1.77782e-013 5.06901e-015
rhumerus -32.5374 -11.1716 -88.3742
rradius 24.5222
rwrist 38.2921
rhand 16.7197 -17.4021
rfingers 7.12502
rthumb 41.4679 -42.168
lclavicle 1.77782e-013 5.06901e-015
lhumerus -34.9825 13.3647 87.9377
lradius 34.1422
lwrist -12.4414
lhand -7.30709 12.2011
lfingers 7.12502
lthumb 18.5755 41.3342
rfemur 0.453077 13.3218 11.0789
rtibia 4.6652
rfoot -7.72511 14.8432
rtoes -5.90884
lfemur 2.26225 -9.73943 -16.26
ltibia 4.95024
lfoot -16.1098 7.68051
ltoes -15.5175
888
root 13.902 17.624 5.05207 -181.286 55.2476 -181.771
lowerback -2.84452 -2.47306 1.76093
upperback -0.557876 -3.33575 -0.531938
thorax 0.887957 -1.65983 -1.64509
lowerneck -1.62245 8.20783 -2.78599
upperneck 2.96086 11.0752 -0.63177
head 1.05913 5.50558 0.398639
rclavicle -8.39741e-014 -9.93923e-016
rhumerus -32.255 -10.766 -88.5578
rradius 24.3477
rwrist 38.1056
rhand 16.3433 -17.5693
rfingers 7.12502
rthumb 41.1145 -42.4492
lclavicle -8.39741e-014 -9.93923e-016
lhumerus -35.0783 13.9445 87.6689
lradius 34.1198
lwrist -13.415
lhand -6.86175 11.9791
lfingers 7.12502
lthumb 19.0038 41.0707
rfemur 1.01858 13.3816 10.8868
rtibia 3.26606
rfoot -6.91229 15.0199
rtoes -6.27876
lfemur 1.85264 -9.52644 -16.3907
ltibia 5.97702
lfoot -16.6275 7.91068
ltoes -15.3263
889
root 13.8593 17.6261 5.00585 -181.445 55.6273 -181.977
lowerback -2.83412 -2.46576 1.65087
upperback -0.518016 -3.32318 -0.541636
thorax 0.929231 -1.65326 -1.59404
lowerneck -1.60305 8.29014 -3.04666
upperneck 2.87772 11.1915 -0.65647
head 1.0158 5.56266 0.427869
rclavicle 6.60462e-014 9.93923e-017
rhumerus -31.9532 -10.4747 -88.6757
rradius 24.1401
rwrist 38.0367
rhand 16.281 -17.345
rfingers 7.12502
rthumb 41.056 -42.2436
lclavicle 6.60462e-014 9.93923e-017
lhumerus -35.0378 13.8771 87.8067
lradius 34.1021
lwrist -12.7699
lhand -7.47308 12.096
lfingers 7.12502
lthumb 18.4158 41.2443
rfemur 1.93387 13.4042 10.3888
rtibia 0.987084
rfoot -5.62288 15.1539
rtoes -6.36007
lfemur 1.48642 -9.3402 -16.7336
ltibia 6.78471
lfoot -17.0215 8.10266
ltoes -15.1353
890
root 13.8142 17.6277 4.95981 -181.429 56.0748 -181.99
lowerback -2.70276 -2.47235 1.6971
upperback -0.57097 -3.33079 -0.535801
thorax 0.798891 -1.65871 -1.60593
lowerneck -1.47904 8.45273 -3.18267
upperneck 2.86327 11.4104 -0.700507
head 0.983104 5.67181 0.43005
rclavicle -3.07371e-014 -4.96962e-016
rhumerus -31.7865 -9.915 -88.9025
rradius 24.0257
rwrist 37.7611
rhand 16.2604 -17.2834
rfingers 7.12502
rthumb 41.0367 -42.1882
lclavicle -3.07371e-014 -4.96962e-016
lhumerus -35.2671 14.1812 87.7091
lradius 34.128
lwrist -12.6449
lhand -7.69371 12.222
lfingers 7.12502
lthumb 18.2035 41.3902
rfemur 2.1991 13.4805 10.0839
rtibia 7.95139e-016
rfoot -4.96824 15.3246
rtoes -6.52837
lfemur 1.22893 -9.0788 -16.9716
ltibia 7.36585
lfoot -17.3237 8.27172
ltoes -14.9247
891
root 13.7639 17.6297 4.91095 -181.365 56.4408 -181.943
lowerback -2.61454 -2.47968 1.87595
upperback -0.561826 -3.34419 -0.563836
thorax 0.746448 -1.66585 -1.73045
lowerneck -1.42375 8.59482 -3.11661
upperneck 2.81075 11.604 -0.920808
head 0.972282 5.76803 0.351961
rclavicle 1.25172e-014 2.5842e-015
rhumerus -31.4746 -9.54076 -89.1377
rradius 23.8604
rwrist 37.4343
rhand 16.337 -17.1119
rfingers 7.12502
rthumb 41.1086 -41.9936
lclavicle 1.25172e-014 2.5842e-015
lhumerus -35.2522 14.2873 87.6213
lradius 33.9027
lwrist -12.8187
lhand -7.52479 12.1523
lfingers 7.12502
lthumb 18.366 41.3053
rfemur 1.98741 13.4659 9.88356
rtibia 1.59028e-014
rfoot -4.75831 15.5542
rtoes -6.80011
lfemur 1.03137 -8.89381 -17.1347
ltibia 7.69825
lfoot -17.4814 8.40189
ltoes -14.7055
892
root 13.7188 17.6336 4.86508 -181.474 56.8428 -182.052
lowerback -2.4773 -2.48014 1.83034
upperback -0.570243 -3.34128 -0.574158
thorax 0.663199 -1.66562 -1.70845
lowerneck -1.3286 8.7723 -2.91705
upperneck 2.81457 11.8466 -1.2456
head 0.987059 5.88843 0.223994
rclavicle -1.81981e-014 -1.19271e-015
rhumerus -31.2812 -8.65208 -89.4889
rradius 23.8371
rwrist 36.761
rhand 16.2021 -17.0421
rfingers 7.12502
rthumb 40.9819 -41.9642
lclavicle -1.81981e-014 -1.19271e-015
lhumerus -35.3707 14.5313 87.543
lradius 33.7947
lwrist -12.929
lhand -7.63227 12.1583
lfingers 7.12502
lthumb 18.2626 41.321
rfemur 1.85585 13.4961 9.62048
rtibia -1.51076e-014
rfoot -4.67163 15.7228
rtoes -7.44324
lfemur 0.89653 -8.67191 -17.4136
ltibia 8.06069
lfoot -17.7023 8.45262
ltoes -14.2828
893
root 13.6727 17.6402 4.8136 -181.627 57.3255 -182.196
lowerback -2.3288 -2.44699 1.83025
upperback -0.595229 -3.29448 -0.575615
thorax 0.556451 -1.64371 -1.70071
lowerneck -1.2232 8.90177 -2.93136
upperneck 2.82733 12.0259 -1.43335
head 0.983385 5.97724 0.167465
rclavicle 2.23695e-014 2.98177e-015
rhumerus -31.1442 -7.97136 -89.7562
rradius 23.8638
rwrist 36.3342
rhand 16.1964 -17.1617
rfingers 7.12502
rthumb 40.9766 -42.0855
lclavicle 2.23695e-014 2.98177e-015
lhumerus -35.5374 14.6325 87.5681
lradius 33.7462
lwrist -13.0651
lhand -7.6254 12.3239
lfingers 7.12502
lthumb 18.2692 41.4859
rfemur 1.71484 13.6081 9.33932
rtibia 5.56597e-015
rfoot -4.54005 15.8395
rtoes -7.8152
lfemur 0.875291 -8.36106 -17.7311
ltibia 8.25525
lfoot -17.8048 8.59416
ltoes -14.1548
894
root 13.6264 17.6422 4.76558 -181.667 57.7437 -182.201
lowerback -2.17819 -2.46476 1.92827
upperback -0.590996 -3.31805 -0.59464
thorax 0.468825 -1.65668 -1.76798
lowerneck -1.21711 9.05279 -2.97645
upperneck 2.87253 12.2338 -1.50608
head 0.997264 6.07976 0.155656
rclavicle 6.07287e-014 3.37934e-015
rhumerus -30.9502 -7.42872 -90.0458
rradius 23.8246
rwrist 36.3224
rhand 16.0758 -17.0478
rfingers 7.12502
rthumb 40.8633 -42.0075
lclavicle 6.07287e-014 3.37934e-015
lhumerus -35.5306 14.2621 87.7017
lradius 33.5063
lwrist -12.5943
lhand -7.73984 12.299
lfingers 7.12502
lthumb 18.1591 41.4713
rfemur 1.58964 13.6549 9.14925
rtibia 3.18055e-015
rfoot -4.41136 15.9762
rtoes -8.14266
lfemur 0.792413 -8.12137 -17.9339
ltibia 8.52019
lfoot -17.9429 8.70206
ltoes -14.0331
895
root 13.5802 17.6427 4.71726 -182.026 58.3143 -182.54
lowerback -2.08686 -2.37748 1.88072
upperback -0.530946 -3.19964 -0.663547
thorax 0.483231 -1.59718 -1.80696
lowerneck -1.14996 9.15159 -3.03184
upperneck 2.82034 12.3673 -1.59984
head 0.971771 6.14669 0.132016
rclavicle 1.29831e-015 4.67144e-015
rhumerus -30.6272 -7.04104 -90.2649
rradius 23.7475
rwrist 36.0942
rhand 15.8796 -17.1547
rfingers 7.12502
rthumb 40.679 -42.1722
lclavicle 1.29831e-015 4.67144e-015
lhumerus -35.6181 14.6397 87.5474
lradius 33.3613
lwrist -13.6845
lhand -7.22489 12.2611
lfingers 7.12502
lthumb 18.6545 41.3866
rfemur 1.46959 13.8629 8.77912
rtibia -7.95139e-015
rfoot -4.36491 16.1014
rtoes -8.85947
lfemur 0.772781 -7.72325 -18.3573
ltibia 8.80485
lfoot -18.0985 8.82599
ltoes -13.8842
896
root 13.5278 17.6463 4.67373 -181.44 58.6871 -181.968
lowerback -2.00255 -2.38166 2.22984
upperback -0.534361 -3.21172 -0.576074
thorax 0.417775 -1.60411 -1.90816
lowerneck -1.14337 9.31391 -2.78608
upperneck 2.78902 12.5918 -1.94493
head 0.998315 6.25815 -0.00381226
rclavicle 7.81162e-015 2.38542e-015
rhumerus -30.3495 -6.51852 -90.5346
rradius 23.8099
rwrist 35.7205
rhand 15.9488 -17.2092
rfingers 7.12502
rthumb 40.744 -42.2064
lclavicle 7.81162e-015 2.38542e-015
lhumerus -35.5983 15.2652 87.4218
lradius 33.0157
lwrist -14.1896
lhand -7.24653 12.0984
lfingers 7.12502
lthumb 18.6337 41.2259
rfemur 1.17569 13.8282 8.92557
rtibia -1.66979e-014
rfoot -4.21795 16.1626
rtoes -9.3792
lfemur 0.467695 -7.54043 -18.1679
ltibia 9.10133
lfoot -18.181 8.9302
ltoes -13.7052
897
root 13.4829 17.6467 4.62902 -181.463 59.1663 -181.955
lowerback -1.89471 -2.34973 2.2237
upperback -0.516891 -3.16731 -0.558847
thorax 0.378851 -1.5824 -1.88178
lowerneck -0.972526 9.4259 -2.71042
upperneck 2.64764 12.736 -2.12243
head 0.942433 6.33312 -0.0791916
rclavicle 3.34207e-015 5.76476e-015
rhumerus -30.184 -5.8635 -90.8636
rradius 23.9123
rwrist 35.3384
rhand 15.7188 -17.1779
rfingers 7.12502
rthumb 40.5278 -42.2426
lclavicle 3.34207e-015 5.76476e-015
lhumerus -35.6495 15.0598 87.6285
lradius 32.9056
lwrist -13.8733
lhand -7.56026 12.3498
lfingers 7.12502
lthumb 18.3319 41.506
rfemur 1.0257 13.9322 8.75421
rtibia -5.56597e-015
rfoot -4.05747 16.2224
rtoes -9.45198
lfemur 0.424681 -7.23578 -18.3457
ltibia 9.27038
lfoot -18.2749 8.99436
ltoes -13.5104
898
root 13.4375 17.6482 4.58589 -181.611 59.6789 -182.065
lowerback -1.78389 -2.26905 2.29103
upperback -0.445139 -3.05936 -0.654923
thorax 0.386841 -1.52807 -2.01283
lowerneck -1.00903 9.53295 -2.72853
upperneck 2.60731 12.8747 -2.05012
head 0.929418 6.40279 -0.0539148
rclavicle 5.30227e-014 -7.95139e-016
rhumerus -29.9577 -5.14012 -91.3336
rradius 24.0974
rwrist 34.6572
rhand 15.5129 -17.1509
rfingers 7.12502
rthumb 40.3343 -42.2753
lclavicle 5.30227e-014 -7.95139e-016
lhumerus -35.5796 14.8325 87.6397
lradius 32.7191
lwrist -14.1688
lhand -7.22457 12.3028
lfingers 7.12502
lthumb 18.6548 41.4283
rfemur 0.886103 14.0738 8.53365
rtibia 1.31198e-014
rfoot -3.9036 16.2426
rtoes -9.78798
lfemur 0.386691 -6.89814 -18.6049
ltibia 9.4922
lfoot -18.3857 9.12322
ltoes -13.3007
899
root 13.3956 17.6502 4.54248 -181.839 60.1645 -182.307
lowerback -1.74613 -2.2066 2.19543
upperback -0.38658 -2.97426 -0.687613
thorax 0.43327 -1.48457 -1.99155
lowerneck -0.945731 9.67058 -2.57911
upperneck 2.53479 13.0606 -2.29251
head 0.922963 6.49652 -0.150041
rclavicle 7.96661e-014 5.56597e-015
rhumerus -29.7033 -5.15331 -91.4504
rradius 24.2265
rwrist 34.7732
rhand 15.3661 -17.2822
rfingers 7.12502
rthumb 40.1961 -42.4488
lclavicle 7.96661e-014 5.56597e-015
lhumerus -35.558 14.7664 87.7559
lradius 32.5836
lwrist -14.461
lhand -7.14171 12.3581
lfingers 7.12502
lthumb 18.7345 41.4759
rfemur 0.716581 14.1836 8.23901
rtibia -7.55382e-015
rfoot -3.73522 16.2772
rtoes -10.0706
lfemur 0.347449 -6.58008 -18.9067
ltibia 9.61216
lfoot -18.4513 9.25124
ltoes -13.1175
900
root 13.3507 17.6529 4.5024 -181.713 60.6339 -182.191
lowerback -1.6829 -2.1704 2.1761
upperback -0.371125 -2.92509 -0.623754
thorax 0.420526 -1.4601 -1.91231
lowerneck -0.824275 9.79084 -2.47244
upperneck 2.42937 13.2189 -2.48836
head 0.891348 6.57785 -0.230983
rclavicle -6.25892e-014 5.1684e-015
rhumerus -29.5661 -4.55051 -91.7139
rradius 24.5033
rwrist 34.5457
rhand 15.1475 -16.9706
rfingers 7.12502
rthumb 39.9905 -42.1996
lclavicle -6.25892e-014 5.1684e-015
lhumerus -35.5978 14.831 87.8673
lradius 32.4768
lwrist -14.7616
lhand -7.07785 12.3703
lfingers 7.12502
lthumb 18.7959 41.4822
rfemur 0.475873 14.2616 8.13303
rtibia 3.57812e-015
rfoot -3.43535 16.2644
rtoes -10.0861
lfemur 0.259729 -6.28228 -18.9925
ltibia 9.67785
lfoot -18.4701 9.34932
ltoes -12.9932
901
root 13.304 17.6559 4.46352 -181.432 61.0856 -181.947
lowerback -1.62326 -2.10966 2.29683
upperback -0.350257 -2.84539 -0.607337
thorax 0.407372 -1.42025 -1.95971
lowerneck -0.81954 9.84957 -2.44082
upperneck 2.35658 13.2942 -2.52448
head 0.87274 6.61634 -0.248078
rclavicle 3.41925e-014 -1.59028e-015
rhumerus -29.3519 -4.19829 -92.016
rradius 24.6913
rwrist 34.155
rhand 15.2685 -17.0348
rfingers 7.12502
rthumb 40.1043 -42.2293
lclavicle 3.41925e-014 -1.59028e-015
lhumerus -35.5614 14.7514 87.9796
lradius 32.3331
lwrist -14.9584
lhand -6.97832 12.2284
lfingers 7.12502
lthumb 18.8917 41.331
rfemur 0.177551 14.3111 8.10838
rtibia 6.75868e-015
rfoot -3.12758 16.1209
rtoes -10.0837
lfemur 0.117363 -6.00474 -19.0363
ltibia 9.78763
lfoot -18.5214 9.48624
ltoes -12.953
